<svg xmlns="http://www.w3.org/2000/svg" xmlns:xlink="http://www.w3.org/1999/xlink" width="500" zoomAndPan="magnify" viewBox="0 0 375 374.999991" height="500" preserveAspectRatio="xMidYMid meet" version="1.0"><defs><clipPath id="415b612dd5"><path d="M 7.675781 259 L 113 259 L 113 375 L 7.675781 375 Z M 7.675781 259 " clip-rule="nonzero"/></clipPath><clipPath id="b301e0b81d"><path d="M 334 120 L 354.175781 120 L 354.175781 132 L 334 132 Z M 334 120 " clip-rule="nonzero"/></clipPath></defs><path fill="#addcf3" d="M 344.625 270.070312 L 307.449219 250.671875 L 274.429688 131.363281 L 265.253906 133.902344 L 295.902344 244.644531 L 245.972656 218.589844 C 243.644531 217.371094 240.769531 218.273438 239.550781 220.605469 C 238.335938 222.9375 239.238281 225.8125 241.570312 227.027344 L 340.21875 278.507812 C 340.894531 278.863281 341.617188 279.035156 342.335938 279.046875 C 347.25 279.144531 349.082031 272.414062 344.625 270.070312 Z M 344.625 270.070312 " fill-opacity="1" fill-rule="nonzero"/><path fill="#000000" d="M 342.417969 280.476562 C 341.414062 280.476562 340.449219 280.238281 339.554688 279.773438 C 339.554688 279.773438 240.90625 228.292969 240.90625 228.292969 C 239.441406 227.527344 238.363281 226.238281 237.867188 224.664062 C 236.808594 221.511719 238.722656 217.832031 241.921875 216.90625 C 243.5 216.410156 245.171875 216.5625 246.636719 217.328125 L 293.652344 241.859375 L 263.496094 132.90625 L 275.425781 129.605469 L 308.660156 249.691406 L 345.285156 268.804688 C 350.972656 271.761719 348.832031 280.488281 342.417969 280.476562 Z M 243.773438 219.476562 C 240.363281 219.453125 239.140625 224.179688 242.230469 225.761719 C 242.230469 225.761719 340.878906 277.242188 340.878906 277.242188 C 342.457031 278.097656 344.5625 277.449219 345.375 275.832031 C 346.234375 274.257812 345.570312 272.132812 343.960938 271.335938 C 343.960938 271.335938 306.238281 251.652344 306.238281 251.652344 L 273.433594 133.121094 L 267.011719 134.894531 L 298.15625 247.429688 L 245.3125 219.855469 C 244.828125 219.601562 244.300781 219.472656 243.773438 219.472656 Z M 243.773438 219.476562 " fill-opacity="1" fill-rule="nonzero"/><path fill="#addcf3" d="M 108.8125 364.863281 L 57.222656 329.964844 C 74.167969 305.984375 98.675781 271.644531 101.347656 268.863281 C 101.164062 269.054688 101.003906 269.164062 100.902344 269.234375 L 95.371094 261.488281 C 94.558594 262.070312 92.425781 263.597656 49.332031 324.632812 L 16.648438 302.519531 C 11.363281 299.164062 6.1875 306.695312 11.3125 310.402344 C 11.3125 310.402344 103.476562 372.746094 103.476562 372.746094 C 104.175781 373.21875 104.957031 373.480469 105.742188 373.546875 C 110.519531 373.96875 112.878906 367.621094 108.8125 364.863281 Z M 108.8125 364.863281 " fill-opacity="1" fill-rule="nonzero"/><g clip-path="url(#415b612dd5)"><path fill="#000000" d="M 106.140625 374.992188 C 104.914062 374.992188 103.699219 374.617188 102.675781 373.925781 C 102.675781 373.925781 10.511719 311.585938 10.511719 311.585938 C 9.140625 310.660156 8.214844 309.257812 7.902344 307.632812 C 6.808594 302.328125 12.972656 298.238281 17.445312 301.339844 C 17.445312 301.339844 48.976562 322.664062 48.976562 322.664062 C 93.167969 260.550781 91.683594 262.644531 95.703125 259.496094 L 102.0625 268.40625 L 101.382812 268.890625 L 102.378906 269.847656 C 99.964844 272.375 78.503906 302.335938 59.230469 329.601562 L 109.613281 363.679688 C 114.636719 367.046875 112.179688 375.015625 106.140625 374.992188 Z M 13.984375 303.132812 C 10.800781 303.085938 9.371094 307.414062 12.113281 309.222656 C 12.113281 309.222656 104.277344 371.5625 104.277344 371.5625 C 107.949219 373.921875 111.609375 368.613281 108.011719 366.046875 C 108.011719 366.046875 55.214844 330.335938 55.214844 330.335938 C 69.035156 310.765625 93.070312 276.992188 99.164062 269.257812 L 95.195312 263.699219 C 91.597656 267.777344 74.328125 291.664062 49.695312 326.597656 L 15.847656 303.703125 C 15.277344 303.320312 14.628906 303.132812 13.984375 303.132812 Z M 13.984375 303.132812 " fill-opacity="1" fill-rule="nonzero"/></g><path fill="#ebb0cb" d="M 218.738281 17.699219 C 241.007812 -1.667969 281.695312 -5.070312 313.042969 17.699219 C 347.222656 42.527344 352.753906 86.753906 344.339844 114.035156 C 323.972656 180.078125 239.191406 250.097656 218.738281 264.5 C 198.285156 278.898438 147.117188 319.617188 115.203125 319.617188 C 100.285156 319.617188 19.941406 268.125 21.929688 235.996094 C 23.914062 203.867188 127.246094 124.277344 140.660156 116.921875 C 154.074219 109.566406 218.738281 17.699219 218.738281 17.699219 Z M 218.738281 17.699219 " fill-opacity="1" fill-rule="nonzero"/><path fill="#000000" d="M 115.203125 321.046875 C 100.957031 321.605469 19.09375 270.332031 20.503906 235.910156 C 22.542969 202.949219 126.042969 123.308594 139.972656 115.671875 C 152.945312 108.558594 216.925781 17.792969 217.570312 16.878906 C 242.648438 -5.679688 286.847656 -4.003906 313.882812 16.542969 C 333.867188 31.058594 342.402344 50.683594 346.046875 64.585938 C 371.621094 144.289062 246.917969 245.542969 219.5625 265.667969 C 191.613281 285.550781 147.703125 320.371094 115.203125 321.046875 Z M 219.804688 18.664062 C 215.976562 24.097656 154.753906 110.820312 141.347656 118.171875 C 128.054688 125.460938 25.289062 204.785156 23.355469 236.085938 C 22.378906 269.222656 104.128906 319.398438 115.203125 318.191406 C 142.554688 318.191406 185.523438 286.875 208.605469 270.054688 C 238.519531 248.488281 317.71875 186.847656 342.976562 113.617188 C 350.308594 89.835938 348.164062 44.976562 312.203125 18.855469 C 280.679688 -4.042969 240.519531 0.777344 219.804688 18.664062 Z M 219.804688 18.664062 " fill-opacity="1" fill-rule="nonzero"/><path fill="#000000" d="M 112.242188 298.699219 C 105.460938 298.699219 87.09375 289.222656 68.5625 276.167969 C 46.460938 260.59375 29.535156 243.878906 22.125 230.3125 C 21.75 229.617188 22.003906 228.75 22.695312 228.375 C 23.390625 227.996094 24.257812 228.25 24.632812 228.941406 C 41.316406 259.5 100.136719 295.84375 112.242188 295.84375 C 139.59375 295.84375 182.558594 264.53125 205.640625 247.707031 C 235.570312 226.128906 314.746094 164.515625 340.015625 91.269531 C 342.375 83.609375 343.550781 74.769531 343.414062 65.699219 C 343.402344 64.914062 344.03125 64.265625 344.820312 64.253906 C 345.59375 64.273438 346.257812 64.871094 346.269531 65.660156 C 346.753906 141.796875 235.546875 230.507812 207.324219 250.015625 C 182.339844 268.226562 140.523438 298.703125 112.242188 298.703125 Z M 112.242188 298.699219 " fill-opacity="1" fill-rule="nonzero"/><path fill="#000000" d="M 113.8125 320.925781 C 113.054688 320.925781 112.421875 320.332031 112.386719 319.566406 C 112.378906 319.40625 111.652344 303.539062 110.828125 297.464844 C 110.722656 296.683594 111.269531 295.964844 112.050781 295.859375 C 112.824219 295.75 113.550781 296.300781 113.65625 297.082031 C 114.5 303.28125 115.210938 318.777344 115.242188 319.433594 C 115.28125 320.246094 114.625 320.929688 113.8125 320.925781 Z M 113.8125 320.925781 " fill-opacity="1" fill-rule="nonzero"/><path fill="#addcf3" d="M 115.878906 24.335938 C 112.609375 24.929688 108.265625 27.003906 109.097656 31.050781 C 109.933594 34.386719 113.859375 35.5 116.863281 34.878906 C 119.695312 34.382812 123.027344 33.4375 125.667969 32.304688 C 126.976562 31.742188 128.089844 31.402344 129.523438 31.140625 C 129.894531 31.074219 131.324219 30.667969 132.578125 30.394531 C 133.203125 30.253906 133.34375 29.425781 132.792969 29.09375 C 127.636719 26 122.054688 23.21875 115.878906 24.335938 Z M 115.878906 24.335938 " fill-opacity="1" fill-rule="nonzero"/><path fill="#000000" d="M 115.136719 36.460938 C 111.679688 36.476562 108.519531 34.632812 107.703125 31.371094 C 106.574219 27.054688 111.15625 23.582031 115.625 22.929688 C 122.484375 21.691406 128.460938 24.832031 133.527344 27.871094 C 134.28125 28.324219 134.679688 29.175781 134.535156 30.042969 C 134.394531 30.914062 133.746094 31.597656 132.882812 31.789062 C 131.902344 31.996094 130.578125 32.375 129.777344 32.546875 C 128.472656 32.785156 127.445312 33.09375 126.230469 33.617188 C 122.992188 34.929688 118.835938 36.292969 115.136719 36.460938 Z M 116.132812 25.738281 C 113.972656 26.183594 109.839844 27.464844 110.511719 30.824219 C 111.28125 33.667969 115.375 33.847656 116.765625 33.449219 C 119.660156 32.925781 122.757812 32.011719 125.253906 30.929688 C 127.019531 30.132812 128.601562 29.914062 130.527344 29.417969 C 126.257812 26.972656 121.378906 24.792969 116.128906 25.738281 Z M 116.132812 25.738281 " fill-opacity="1" fill-rule="nonzero"/><path fill="#addcf3" d="M 126.925781 12.414062 C 124.902344 11.332031 121.664062 10.585938 120.371094 13.132812 C 119.390625 15.296875 121.035156 17.582031 122.921875 18.539062 C 125.515625 20.121094 128.675781 20.652344 131.375 21.957031 C 131.605469 22.082031 132.550781 22.476562 133.347656 22.867188 C 133.746094 23.0625 134.179688 22.671875 134.023438 22.257812 C 132.566406 18.367188 130.746094 14.46875 126.925781 12.414062 Z M 126.925781 12.414062 " fill-opacity="1" fill-rule="nonzero"/><path fill="#000000" d="M 133.566406 24.34375 C 132.625 24.289062 131.488281 23.507812 130.703125 23.214844 C 127.988281 21.949219 124.941406 21.421875 122.238281 19.789062 C 114.820312 15.371094 119.917969 6.847656 127.601562 11.15625 C 131.769531 13.394531 133.792969 17.574219 135.359375 21.753906 C 135.859375 22.957031 134.851562 24.382812 133.566406 24.34375 Z M 132.6875 22.757812 L 132.695312 22.757812 Z M 123.386719 12.84375 C 122.457031 12.777344 121.433594 13.429688 121.511719 14.5 C 121.570312 16.015625 122.996094 16.949219 123.605469 17.28125 C 126.226562 18.855469 129.191406 19.332031 131.816406 20.574219 C 130.628906 17.835938 129.015625 15.15625 126.25 13.671875 C 125.289062 13.1875 124.539062 12.886719 123.386719 12.84375 Z M 123.386719 12.84375 " fill-opacity="1" fill-rule="nonzero"/><path fill="#addcf3" d="M 347.257812 139.164062 C 349.050781 141.960938 350.496094 146.546875 346.96875 148.703125 C 343.957031 150.367188 340.46875 148.253906 338.871094 145.636719 C 337.300781 143.230469 335.71875 140.144531 334.75 137.445312 C 334.265625 136.105469 333.753906 135.058594 332.96875 133.835938 C 332.765625 133.515625 332.089844 132.195312 331.433594 131.089844 C 331.105469 130.539062 331.617188 129.867188 332.234375 130.046875 C 338.019531 131.707031 343.859375 133.886719 347.257812 139.160156 Z M 347.257812 139.164062 " fill-opacity="1" fill-rule="nonzero"/><path fill="#000000" d="M 344.714844 150.710938 C 336.90625 150.515625 334.984375 140.046875 331.769531 134.605469 C 331.34375 133.894531 330.722656 132.683594 330.203125 131.820312 C 329.195312 130.242188 330.839844 128.09375 332.628906 128.675781 C 338.308594 130.304688 344.683594 132.53125 348.457031 138.386719 C 351.859375 143.300781 351.289062 150.453125 344.714844 150.710938 Z M 333.542969 131.925781 C 334.527344 133.714844 335.457031 135.050781 336.09375 136.960938 C 336.996094 139.476562 338.484375 142.425781 340.070312 144.859375 C 340.730469 146.121094 343.699219 148.929688 346.253906 147.464844 C 349.050781 145.628906 347.183594 141.777344 346.054688 139.9375 C 343.171875 135.457031 338.246094 133.375 333.542969 131.925781 Z M 333.542969 131.925781 " fill-opacity="1" fill-rule="nonzero"/><path fill="#addcf3" d="M 348.4375 122.953125 C 350.613281 123.695312 353.367188 125.554688 352.386719 128.234375 C 351.472656 130.429688 348.679688 130.789062 346.691406 130.058594 C 343.765625 129.242188 341.21875 127.296875 338.425781 126.214844 C 338.175781 126.128906 337.242188 125.707031 336.414062 125.390625 C 336 125.234375 335.988281 124.652344 336.398438 124.484375 C 340.238281 122.894531 344.335938 121.566406 348.4375 122.957031 Z M 348.4375 122.953125 " fill-opacity="1" fill-rule="nonzero"/><g clip-path="url(#b301e0b81d)"><path fill="#000000" d="M 348.710938 131.832031 C 344.769531 131.71875 341.40625 128.941406 337.964844 127.566406 C 336.800781 127 334.648438 126.707031 334.671875 124.957031 C 334.660156 124.167969 335.125 123.464844 335.851562 123.164062 C 339.980469 121.457031 344.417969 120.082031 348.898438 121.601562 C 352.101562 122.535156 355.058594 125.742188 353.714844 128.753906 C 352.929688 130.734375 350.851562 131.847656 348.710938 131.832031 Z M 339.132812 124.949219 C 341.832031 126.019531 344.203125 127.859375 347.144531 128.703125 C 348.046875 129.089844 350.40625 129.257812 351.054688 127.714844 C 351.550781 126.449219 350.164062 125.421875 349.542969 125.039062 C 346.355469 123.097656 342.414062 123.75 339.132812 124.949219 Z M 339.132812 124.949219 " fill-opacity="1" fill-rule="nonzero"/></g><path fill="#000000" d="M 84.769531 153.367188 C 84.191406 153.367188 83.648438 153.015625 83.429688 152.441406 C 81.539062 147.421875 80.417969 142.164062 80.105469 136.808594 C 80.027344 134.9375 82.808594 134.769531 82.957031 136.640625 C 83.253906 141.707031 84.3125 146.6875 86.105469 151.433594 C 86.46875 152.34375 85.742188 153.382812 84.769531 153.367188 Z M 84.769531 153.367188 " fill-opacity="1" fill-rule="nonzero"/><path fill="#000000" d="M 78.976562 150.566406 C 78.425781 150.566406 77.898438 150.242188 77.667969 149.703125 C 76.390625 146.75 75.675781 143.625 75.535156 140.414062 C 75.488281 138.542969 78.273438 138.410156 78.390625 140.289062 C 78.511719 143.152344 79.152344 145.941406 80.289062 148.570312 C 80.707031 149.484375 79.976562 150.585938 78.976562 150.566406 Z M 78.976562 150.566406 " fill-opacity="1" fill-rule="nonzero"/><path fill="#000000" d="M 303.757812 214.433594 C 302.980469 214.433594 302.34375 213.808594 302.328125 213.027344 C 302.253906 207.953125 301.414062 202.933594 299.835938 198.109375 C 299.589844 197.359375 299.996094 196.550781 300.746094 196.308594 C 301.496094 196.0625 302.304688 196.46875 302.550781 197.21875 C 304.21875 202.316406 305.109375 207.621094 305.1875 212.984375 C 305.199219 213.78125 304.554688 214.433594 303.757812 214.433594 Z M 303.757812 214.433594 " fill-opacity="1" fill-rule="nonzero"/><path fill="#000000" d="M 308.484375 211.011719 C 307.695312 211.011719 307.054688 210.371094 307.054688 209.582031 C 307.054688 206.714844 306.539062 203.902344 305.519531 201.226562 C 305.238281 200.488281 305.609375 199.664062 306.347656 199.382812 C 307.085938 199.101562 307.910156 199.472656 308.191406 200.207031 C 309.335938 203.214844 309.914062 206.367188 309.914062 209.582031 C 309.914062 210.371094 309.273438 211.011719 308.484375 211.011719 Z M 308.484375 211.011719 " fill-opacity="1" fill-rule="nonzero"/><path fill="#f7f7f7" d="M 130.476562 148.777344 C 124.277344 160 108.917969 161.898438 99.972656 152.71875 C 95.859375 148.5 92.433594 144.050781 91.382812 141.425781 C 85.210938 126.003906 87.847656 108.765625 94.992188 106.679688 C 101.441406 104.800781 112.261719 118.820312 113.703125 121.503906 C 115.144531 124.1875 133.972656 129.164062 133.9375 135.007812 C 133.90625 140.542969 132.515625 145.085938 130.476562 148.777344 Z M 130.476562 148.777344 " fill-opacity="1" fill-rule="nonzero"/><path fill="#000000" d="M 107.277344 160.695312 C 106.976562 160.695312 106.671875 160.601562 106.410156 160.40625 C 99.65625 155.257812 91.863281 146.464844 90.058594 141.957031 C 85.347656 130.539062 83.902344 109.519531 94.59375 105.308594 C 102.589844 102.972656 113.992188 119.023438 114.960938 120.828125 C 115.433594 121.46875 118.777344 122.964844 121.222656 124.0625 C 124.609375 125.578125 128.449219 127.300781 131.246094 129.234375 C 131.894531 129.683594 132.058594 130.570312 131.609375 131.21875 C 131.160156 131.867188 130.269531 132.03125 129.621094 131.582031 C 127.042969 129.796875 123.328125 128.136719 120.050781 126.667969 C 115.558594 124.652344 113.175781 123.539062 112.445312 122.179688 C 110.671875 118.875 100.394531 106.589844 95.394531 108.050781 C 87.601562 111.535156 88.09375 129.609375 92.707031 140.898438 C 94.167969 144.542969 101.226562 152.867188 108.140625 158.136719 C 109.234375 158.898438 108.585938 160.753906 107.277344 160.699219 Z M 107.277344 160.695312 " fill-opacity="1" fill-rule="nonzero"/><path fill="#f7f7f7" d="M 216.542969 195.949219 C 203.730469 178.457031 177.945312 143.253906 165.136719 125.765625 C 140.964844 121.980469 94.011719 147.332031 74.058594 170.289062 C 64.589844 180.558594 46.332031 210.867188 51.953125 218.863281 C 60.894531 231.578125 78.015625 214.414062 86.230469 215.636719 C 90.375 216.253906 93.84375 219.070312 96.140625 222.574219 C 98.019531 225.441406 99.355469 227.265625 99.617188 227.617188 C 104.609375 234.421875 106.105469 233.46875 103.636719 243.726562 C 100.457031 261.644531 112 283.207031 121.945312 285.125 C 131.546875 286.976562 129.566406 274.097656 145.425781 264.199219 C 184.1875 240.003906 218.105469 227.707031 216.542969 195.949219 Z M 216.542969 195.949219 " fill-opacity="1" fill-rule="nonzero"/><path fill="#000000" d="M 123.738281 286.734375 C 110.3125 286.300781 98.132812 259.992188 102.722656 241.097656 C 103.503906 237.597656 103.894531 235.347656 102.269531 233.355469 C 97.363281 227.113281 99.414062 229.914062 94.941406 223.351562 C 92.648438 219.847656 89.394531 217.546875 86.019531 217.046875 C 83.542969 216.675781 79.65625 218.480469 75.542969 220.390625 C 67.394531 224.175781 57.253906 228.882812 50.785156 219.683594 C 44.484375 210.71875 63.578125 179.546875 73.007812 169.320312 C 92.652344 146.210938 142.453125 119.761719 165.945312 124.449219 L 217.945312 195.449219 C 221.410156 229.105469 175.355469 246.515625 146.183594 265.40625 C 138.761719 270.039062 135.445312 275.257812 132.785156 279.453125 C 130.238281 283.460938 128.160156 286.734375 123.738281 286.734375 Z M 85.328125 214.144531 C 90.074219 214.355469 94.324219 217.28125 97.335938 221.789062 C 101.695312 228.191406 99.695312 225.460938 104.484375 231.550781 C 107.066406 234.714844 106.277344 238.277344 105.511719 241.71875 C 100.835938 259.15625 113.125 282.199219 122.21875 283.722656 C 126.050781 284.460938 127.40625 282.59375 130.371094 277.921875 C 133.042969 273.71875 136.699219 267.960938 144.667969 262.984375 C 172.78125 244.789062 218.257812 227.160156 215.132812 196.441406 L 164.335938 127.085938 C 141.898438 123.488281 93.863281 149.09375 75.109375 171.253906 C 65.121094 182.085938 48.300781 211.183594 53.121094 218.039062 C 58.21875 225.285156 66.414062 221.480469 74.339844 217.800781 C 78.535156 215.855469 82.222656 214.144531 85.328125 214.144531 Z M 85.328125 214.144531 " fill-opacity="1" fill-rule="nonzero"/><path fill="#f7f7f7" d="M 171.507812 210.027344 C 169.769531 222.722656 180.949219 233.421875 193.609375 231.40625 C 199.429688 230.476562 204.839844 228.960938 207.246094 227.484375 C 221.417969 218.804688 229.609375 203.40625 225.125 197.46875 C 221.078125 192.109375 204.023438 196.886719 201.261719 198.175781 C 198.5 199.464844 180.429688 192.210938 176.964844 196.917969 C 173.683594 201.375 172.078125 205.847656 171.507812 210.027344 Z M 171.507812 210.027344 " fill-opacity="1" fill-rule="nonzero"/><path fill="#000000" d="M 183.835938 233.722656 C 181.976562 233.6875 181.945312 230.925781 183.820312 230.867188 C 192.515625 230.773438 203.152344 228.316406 206.5 226.265625 C 216.925781 220.015625 228.164062 205.722656 223.984375 198.328125 C 220.839844 194.164062 205.265625 197.882812 201.867188 199.46875 C 200.464844 200.125 197.890625 199.59375 193.082031 198.523438 C 189.578125 197.742188 185.609375 196.859375 182.472656 196.75 C 181.683594 196.722656 181.066406 196.058594 181.097656 195.273438 C 181.125 194.484375 181.78125 193.867188 182.574219 193.894531 C 185.972656 194.015625 190.082031 194.929688 193.707031 195.738281 C 196.316406 196.320312 199.898438 197.113281 200.6875 196.871094 C 202.515625 196.015625 221.25 189.960938 226.265625 196.609375 C 232.324219 206.363281 218.59375 222.363281 207.992188 228.703125 C 203.847656 231.238281 192.328125 233.636719 183.835938 233.726562 Z M 183.835938 233.722656 " fill-opacity="1" fill-rule="nonzero"/><path fill="#f7f7f7" d="M 291.316406 39.148438 C 291.757812 33.398438 295 28.460938 296.789062 23.105469 C 297.925781 19.707031 298.160156 15.726562 296.171875 12.75 C 294.179688 9.769531 289.417969 8.609375 286.917969 11.175781 C 289.039062 8.035156 287.007812 3.253906 283.46875 1.890625 C 279.929688 0.523438 275.730469 2.105469 273.234375 4.960938 C 269.46875 9.355469 268.972656 15.726562 269.539062 21.304688 C 163.101562 -37.378906 53.960938 80.441406 164.640625 170.367188 C 274.554688 266.449219 369.644531 130.371094 291.316406 39.148438 Z M 291.316406 39.148438 " fill-opacity="1" fill-rule="nonzero"/><path fill="#ebb0cb" d="M 229.558594 153.59375 C 227.054688 156.597656 221.308594 155.933594 216.726562 152.117188 C 205.953125 142.652344 214.535156 132.363281 225.789062 141.242188 C 230.375 145.0625 232.058594 150.59375 229.558594 153.59375 Z M 229.558594 153.59375 " fill-opacity="1" fill-rule="nonzero"/><path fill="#ebb0cb" d="M 145.976562 83.976562 C 143.472656 86.980469 137.726562 86.316406 133.144531 82.5 C 122.375 73.035156 130.953125 62.746094 142.207031 71.625 C 146.792969 75.445312 148.480469 80.972656 145.976562 83.976562 Z M 145.976562 83.976562 " fill-opacity="1" fill-rule="nonzero"/><path fill="#000000" d="M 240.601562 204.882812 C 225.371094 204.882812 209.359375 200.390625 192.832031 191.46875 C 191.207031 190.496094 192.503906 188.117188 194.1875 188.953125 C 294.15625 243.617188 356.609375 115.109375 291.527344 41.507812 C 290.378906 40.214844 289.875 38.488281 290.175781 36.890625 C 290.789062 33.671875 292.074219 30.746094 293.3125 27.914062 C 295.363281 23.632812 297.707031 17.324219 294.984375 13.539062 C 293.558594 11.496094 290.214844 10.144531 287.941406 12.171875 L 285.734375 10.378906 C 287.417969 7.519531 285.414062 4.238281 282.957031 3.222656 C 279.855469 2.027344 276.261719 3.664062 274.308594 5.898438 C 272.316406 8.175781 271.152344 11.429688 270.84375 15.574219 C 270.589844 18.226562 270.960938 21.347656 271.28125 24.042969 C 184.375 -30.597656 67.664062 56.390625 144.375 148.28125 C 145.550781 149.679688 143.425781 151.5625 142.175781 150.109375 C 110.730469 112.351562 108.203125 70.324219 135.417969 37.675781 C 164.746094 1.585938 228.101562 -5.628906 267.921875 18.6875 C 267.675781 13.425781 269.105469 7.273438 272.15625 4.019531 C 277.875 -2.65625 288.921875 -0.90625 289.203125 8.445312 C 292.261719 7.890625 295.691406 9.429688 297.359375 11.957031 C 300.066406 16.007812 299.011719 20.964844 298.144531 23.558594 C 296.585938 28.246094 293.898438 32.625 292.984375 37.402344 C 292.84375 38.15625 293.097656 38.972656 293.660156 39.609375 C 326.164062 74.230469 331.261719 139.125 300.476562 175.164062 C 284.199219 194.644531 264.101562 204.792969 240.601562 204.878906 Z M 240.601562 204.882812 " fill-opacity="1" fill-rule="nonzero"/><path fill="#000000" d="M 281.480469 30.074219 C 280.816406 30.074219 280.222656 29.609375 280.082031 28.9375 C 280.035156 28.710938 278.96875 23.367188 280.378906 18.199219 C 281.269531 14.925781 283.6875 11.640625 286.84375 9.40625 C 287.488281 8.949219 288.378906 9.105469 288.835938 9.746094 C 289.292969 10.390625 289.140625 11.28125 288.496094 11.738281 C 285.902344 13.574219 283.847656 16.335938 283.132812 18.953125 C 281.910156 23.445312 282.871094 28.316406 282.882812 28.363281 C 283.070312 29.238281 282.371094 30.085938 281.480469 30.078125 Z M 281.480469 30.074219 " fill-opacity="1" fill-rule="nonzero"/><path fill="#000000" d="M 272.574219 31.019531 C 272.058594 31.019531 271.5625 30.738281 271.304688 30.25 C 271.222656 30.089844 269.234375 26.25 268.148438 21.632812 C 267.96875 20.863281 268.445312 20.097656 269.210938 19.914062 C 269.976562 19.734375 270.75 20.210938 270.929688 20.980469 C 271.929688 25.238281 273.820312 28.894531 273.839844 28.929688 C 274.347656 29.847656 273.613281 31.042969 272.574219 31.019531 Z M 272.574219 31.019531 " fill-opacity="1" fill-rule="nonzero"/><path fill="#000000" d="M 290.960938 46.335938 C 290.195312 46.335938 289.5625 45.726562 289.535156 44.957031 C 289.425781 41.492188 290.140625 37.109375 290.171875 36.925781 C 290.296875 36.148438 291.035156 35.621094 291.8125 35.746094 C 292.589844 35.875 293.117188 36.609375 292.988281 37.386719 C 292.980469 37.429688 292.289062 41.6875 292.390625 44.863281 C 292.417969 45.667969 291.765625 46.339844 290.960938 46.339844 Z M 290.960938 46.335938 " fill-opacity="1" fill-rule="nonzero"/><path fill="#000000" d="M 218.273438 118.523438 C 217.742188 118.523438 217.234375 118.226562 216.988281 117.71875 C 214.078125 111.769531 207.722656 107.242188 205.84375 106 C 204.535156 105.191406 204.636719 103.089844 206.023438 102.417969 C 208.058594 101.339844 212.851562 99.894531 222.0625 102.324219 C 222.828125 102.527344 223.28125 103.308594 223.078125 104.070312 C 222.878906 104.832031 222.097656 105.289062 221.335938 105.085938 C 214.585938 103.304688 210.636719 103.796875 208.605469 104.433594 C 211.621094 106.585938 216.820312 110.878906 219.554688 116.46875 C 220.03125 117.382812 219.296875 118.542969 218.269531 118.523438 Z M 218.273438 118.523438 " fill-opacity="1" fill-rule="nonzero"/><path fill="#000000" d="M 183.863281 86.234375 C 183.324219 86.234375 182.800781 86.023438 182.402344 85.628906 C 180.800781 84.042969 175.074219 78.746094 168.652344 77.109375 C 166.847656 76.621094 167.527344 73.90625 169.359375 74.34375 C 175.390625 75.878906 180.652344 80.09375 183.375 82.609375 C 183.582031 80.492188 183.261719 76.527344 180.144531 70.285156 C 179.792969 69.578125 180.078125 68.722656 180.785156 68.371094 C 181.488281 68.019531 182.347656 68.304688 182.699219 69.007812 C 186.828125 77.054688 187.71875 86.164062 183.863281 86.238281 Z M 183.863281 86.234375 " fill-opacity="1" fill-rule="nonzero"/><path fill="#addcf3" d="M 319.4375 134.601562 C 321.789062 129.105469 322.839844 123.144531 322.226562 116.582031 C 322.167969 115.984375 321.882812 115.421875 321.449219 115.011719 C 296.890625 91.710938 279.574219 78.117188 252.371094 58.132812 C 225.144531 38.179688 206.980469 25.742188 177.382812 9.300781 C 176.859375 9.011719 176.238281 8.910156 175.652344 9.035156 C 169.203125 10.414062 163.828125 13.207031 159.285156 17.09375 C 157.964844 18.222656 158.15625 20.3125 159.675781 21.160156 C 187.984375 37 215.179688 54.484375 241.101562 73.480469 C 267.003906 92.507812 291.839844 113.203125 315.441406 135.453125 C 316.707031 136.648438 318.753906 136.203125 319.4375 134.601562 Z M 319.4375 134.601562 " fill-opacity="1" fill-rule="nonzero"/><path fill="#000000" d="M 317.144531 137.554688 C 316.15625 137.554688 315.191406 137.179688 314.460938 136.488281 C 267.4375 92.136719 215.40625 53.957031 158.976562 22.40625 C 156.636719 21.179688 156.292969 17.664062 158.359375 16.007812 C 163.25 11.820312 168.964844 9.003906 175.351562 7.636719 C 176.269531 7.4375 177.238281 7.589844 178.074219 8.054688 C 207.496094 24.394531 225.746094 36.851562 253.214844 56.984375 C 280.660156 77.144531 298.019531 90.8125 322.433594 113.976562 C 323.128906 114.636719 323.558594 115.511719 323.648438 116.449219 C 324.257812 122.949219 323.28125 129.246094 320.753906 135.164062 C 320.152344 136.597656 318.695312 137.566406 317.144531 137.554688 Z M 176.152344 10.40625 C 170.082031 11.613281 164.851562 14.226562 160.214844 18.175781 C 159.941406 18.410156 159.804688 18.75 159.839844 19.101562 C 187.359375 35.933594 216.09375 52.824219 241.945312 72.328125 C 267.84375 91.351562 292.902344 112.242188 316.421875 134.414062 C 316.769531 134.742188 317.152344 134.722656 317.351562 134.679688 C 317.703125 134.605469 317.984375 134.375 318.125 134.042969 C 320.5 128.488281 321.375 122.820312 320.804688 116.714844 C 297.015625 93.082031 278.808594 79.617188 251.523438 59.285156 C 224.003906 39.269531 205.714844 26.339844 176.152344 10.410156 Z M 319.4375 134.601562 L 319.449219 134.601562 Z M 319.4375 134.601562 " fill-opacity="1" fill-rule="nonzero"/><path fill="#000000" d="M 188.152344 110.164062 C 185.703125 110.164062 183.289062 109.109375 181.179688 106.992188 C 176.980469 102.785156 176.972656 97.375 181.164062 92.875 C 181.703125 92.296875 182.605469 92.265625 183.183594 92.804688 C 183.757812 93.339844 183.792969 94.246094 183.253906 94.820312 C 180.128906 98.175781 180.109375 101.878906 183.199219 104.976562 C 186.292969 108.074219 189.996094 108.066406 193.363281 104.949219 C 193.941406 104.414062 194.84375 104.449219 195.378906 105.027344 C 195.917969 105.605469 195.882812 106.507812 195.304688 107.042969 C 193.058594 109.125 190.585938 110.164062 188.152344 110.164062 Z M 188.152344 110.164062 " fill-opacity="1" fill-rule="nonzero"/><path fill="#776d9e" d="M 104.722656 58.886719 C 103.507812 57.789062 98.777344 53.527344 97.5625 52.429688 C 84.703125 40.84375 61.132812 46.023438 44.917969 64 C 28.699219 81.976562 25.976562 105.945312 38.835938 117.535156 C 40.050781 118.632812 44.78125 122.890625 45.996094 123.988281 C 78.308594 150.183594 134.117188 88.296875 104.722656 58.886719 Z M 104.722656 58.886719 " fill-opacity="1" fill-rule="nonzero"/><path fill="#000000" d="M 63.210938 131.609375 C 56.117188 131.609375 49.839844 129.375 45.039062 125.050781 C 45.039062 125.050781 37.878906 118.59375 37.878906 118.59375 C 31.308594 112.671875 28.351562 103.582031 29.554688 93 C 31.488281 72.1875 51.679688 49.800781 72.191406 45.734375 C 82.597656 43.445312 91.949219 45.449219 98.519531 51.371094 C 98.519531 51.371094 105.679688 57.828125 105.679688 57.828125 C 112.25 63.75 115.207031 72.835938 114.003906 83.417969 C 111.550781 106.996094 87.46875 131.628906 63.210938 131.609375 Z M 80.332031 47.667969 C 57.503906 47.6875 34.699219 71.160156 32.390625 93.324219 C 31.296875 102.964844 33.921875 111.1875 39.789062 116.472656 L 46.953125 122.929688 C 52.820312 128.214844 61.269531 129.980469 70.75 127.898438 C 90.09375 124.070312 109.351562 102.722656 111.164062 83.097656 C 112.261719 73.457031 109.632812 65.234375 103.765625 59.945312 C 96.132812 53.113281 91.902344 47.695312 80.332031 47.667969 Z M 80.332031 47.667969 " fill-opacity="1" fill-rule="nonzero"/><path fill="#776d9e" d="M 98.640625 112.421875 C 82.421875 130.398438 58.851562 135.578125 45.996094 123.988281 C 16.597656 94.5625 72.429688 32.695312 104.722656 58.886719 C 117.578125 70.476562 114.855469 94.445312 98.636719 112.421875 Z M 98.640625 112.421875 " fill-opacity="1" fill-rule="nonzero"/><path fill="#000000" d="M 63.210938 131.609375 C 45.617188 131.761719 34.382812 117.359375 36.71875 99.457031 C 38.652344 78.644531 58.84375 56.257812 79.355469 52.191406 C 100.457031 47.207031 116.789062 61.921875 114.003906 83.417969 C 112.820312 93.824219 107.742188 104.460938 99.699219 113.375 C 89.539062 124.414062 77.097656 131.347656 63.210938 131.605469 Z M 87.496094 54.125 C 64.667969 54.140625 41.859375 77.617188 39.554688 99.78125 C 38.457031 109.421875 41.085938 117.640625 46.953125 122.929688 C 61.742188 135.632812 85.160156 125.6875 97.578125 111.464844 C 110.441406 97.664062 117.941406 73.328125 103.765625 59.945312 C 99.507812 56.109375 93.882812 54.125 87.492188 54.125 Z M 87.496094 54.125 " fill-opacity="1" fill-rule="nonzero"/><path fill="#776d9e" d="M 91.253906 105.761719 C 80.183594 118.035156 64.742188 122.160156 56.769531 114.972656 C 38.605469 96.664062 76.785156 54.355469 96.863281 70.527344 C 104.835938 77.714844 102.324219 93.488281 91.253906 105.761719 Z M 91.253906 105.761719 " fill-opacity="1" fill-rule="nonzero"/><path fill="#000000" d="M 66.742188 119.894531 C 55.457031 120.003906 48.972656 110.625 51.019531 99.039062 C 52.125 92.113281 55.777344 84.917969 61.316406 78.78125 C 66.851562 72.640625 73.636719 68.265625 80.414062 66.453125 C 94.613281 62.433594 105.148438 71.925781 102.609375 86.460938 C 100.460938 102.570312 82.097656 120.261719 66.742188 119.894531 Z M 86.855469 68.414062 C 77.902344 68.695312 70.140625 73.480469 63.4375 80.691406 C 55.355469 89.527344 48.898438 105.191406 57.726562 113.910156 C 65.105469 120.5625 79.667969 116.476562 90.191406 104.804688 C 95.363281 99.074219 98.773438 92.398438 99.789062 86.011719 C 101.46875 76.089844 96.519531 68.398438 86.855469 68.414062 Z M 86.855469 68.414062 " fill-opacity="1" fill-rule="nonzero"/><path fill="#776d9e" d="M 85.957031 100.988281 C 82.628906 104.675781 77.792969 105.738281 75.15625 103.359375 C 69.128906 97.324219 80.578125 84.632812 87.203125 90.007812 C 89.839844 92.382812 89.28125 97.300781 85.957031 100.988281 Z M 85.957031 100.988281 " fill-opacity="1" fill-rule="nonzero"/><path fill="#000000" d="M 78.675781 106.039062 C 71.199219 105.914062 70.121094 97.027344 75.34375 91.425781 C 81.035156 84.898438 91.09375 86.320312 90.234375 95.167969 C 89.832031 100.515625 83.820312 106.25 78.675781 106.039062 Z M 83.675781 90.171875 C 81.683594 90.171875 79.292969 91.308594 77.464844 93.335938 C 74.71875 96.378906 74.097656 100.488281 76.113281 102.300781 C 78.128906 104.117188 82.148438 103.078125 84.894531 100.03125 C 87.835938 97.152344 89.066406 90.300781 83.675781 90.171875 Z M 83.675781 90.171875 " fill-opacity="1" fill-rule="nonzero"/><path fill="#776d9e" d="M 248.585938 236.171875 L 80.183594 102.519531 C 77.960938 100.765625 77.628906 97.484375 79.453125 95.332031 C 81.136719 93.1875 84.304688 92.929688 86.4375 94.625 C 86.4375 94.625 254.847656 228.285156 254.847656 228.285156 Z M 248.585938 236.171875 " fill-opacity="1" fill-rule="nonzero"/><path fill="#000000" d="M 248.816406 238.175781 L 79.296875 103.636719 C 76.542969 101.449219 76.019531 97.546875 78.101562 94.746094 C 80.089844 91.765625 84.589844 91.238281 87.328125 93.507812 C 87.328125 93.507812 256.855469 228.054688 256.855469 228.054688 Z M 83.25 94.945312 C 79.929688 94.894531 78.433594 99.390625 81.070312 101.398438 C 81.070312 101.398438 248.355469 234.164062 248.355469 234.164062 L 252.84375 228.515625 L 85.550781 95.742188 C 84.898438 95.226562 84.078125 94.945312 83.25 94.945312 Z M 83.25 94.945312 " fill-opacity="1" fill-rule="nonzero"/><path fill="#776d9e" d="M 281.554688 184.171875 C 280.046875 182.8125 274.203125 177.546875 272.699219 176.191406 C 256.804688 161.863281 227.671875 168.265625 207.625 190.492188 C 187.578125 212.714844 184.210938 242.34375 200.101562 256.667969 C 201.609375 258.027344 207.453125 263.292969 208.957031 264.648438 C 248.902344 297.03125 317.890625 220.523438 281.554688 184.171875 Z M 281.554688 184.171875 " fill-opacity="1" fill-rule="nonzero"/><path fill="#000000" d="M 230.253906 273.679688 C 221.773438 273.679688 213.984375 271.105469 208 265.710938 L 199.144531 257.730469 C 191.109375 250.484375 187.492188 239.351562 188.964844 226.382812 C 192.308594 187.988281 244.351562 149.980469 273.65625 175.128906 C 273.65625 175.128906 282.511719 183.113281 282.511719 183.113281 C 290.546875 190.355469 294.164062 201.488281 292.6875 214.460938 C 290.023438 243.800781 258.40625 274.296875 230.253906 273.679688 Z M 251.363281 169.976562 C 224.691406 169.394531 194.296875 198.828125 191.804688 226.703125 C 190.4375 238.730469 193.722656 248.996094 201.058594 255.609375 L 209.914062 263.589844 C 237.425781 287.105469 286.808594 250.171875 289.851562 214.136719 C 291.21875 202.109375 287.929688 191.84375 280.597656 185.230469 C 270.972656 176.582031 265.746094 170.023438 251.363281 169.976562 Z M 251.363281 169.976562 " fill-opacity="1" fill-rule="nonzero"/><path fill="#776d9e" d="M 274.03125 250.347656 C 253.984375 272.570312 224.851562 278.972656 208.957031 264.648438 C 172.617188 228.269531 241.636719 151.792969 281.554688 184.171875 C 297.449219 198.496094 294.078125 228.125 274.03125 250.347656 Z M 274.03125 250.347656 " fill-opacity="1" fill-rule="nonzero"/><path fill="#000000" d="M 230.253906 273.679688 C 191.441406 272.714844 188.195312 226.925781 215.417969 197.515625 C 235.957031 174.742188 266.054688 168.28125 282.507812 183.113281 C 301.460938 200.761719 292.214844 232.996094 275.09375 251.304688 C 262.023438 265.792969 245.082031 273.679688 230.253906 273.679688 Z M 260.214844 177.957031 C 221.738281 177.109375 181.160156 235.425781 209.914062 263.589844 C 225.195312 277.363281 253.484375 270.996094 272.972656 249.390625 L 274.03125 250.347656 L 272.972656 249.390625 C 289.003906 232.207031 298.273438 201.886719 280.597656 185.230469 C 275.132812 180.304688 268.007812 177.957031 260.214844 177.957031 Z M 260.214844 177.957031 " fill-opacity="1" fill-rule="nonzero"/><path fill="#776d9e" d="M 264.902344 242.117188 C 251.214844 257.289062 232.128906 262.386719 222.273438 253.5 C 199.820312 230.867188 247.015625 178.570312 271.835938 198.5625 C 281.691406 207.445312 278.585938 226.945312 264.902344 242.117188 Z M 264.902344 242.117188 " fill-opacity="1" fill-rule="nonzero"/><path fill="#000000" d="M 234.609375 259.257812 C 220.859375 259.386719 213.003906 247.984375 215.5 233.855469 C 218.664062 208.984375 253.746094 181.425781 272.792969 197.5 C 285.179688 209.433594 277.234375 230.890625 265.964844 243.074219 C 256.578125 253.480469 244.636719 259.257812 234.609375 259.257812 Z M 259.421875 195.597656 C 242.089844 195.203125 220.714844 215.996094 218.324219 234.304688 C 214.539062 262.933594 245.667969 262.058594 263.839844 241.160156 C 270.277344 234.027344 274.519531 225.714844 275.785156 217.757812 C 277.957031 205.289062 271.476562 195.519531 259.421875 195.597656 Z M 259.421875 195.597656 " fill-opacity="1" fill-rule="nonzero"/><path fill="#776d9e" d="M 257.152344 235.132812 C 253.042969 239.695312 247.332031 241.25 244.402344 238.609375 C 237.734375 231.878906 251.917969 216.164062 259.296875 222.101562 C 262.226562 224.738281 261.265625 230.574219 257.152344 235.132812 Z M 257.152344 235.132812 " fill-opacity="1" fill-rule="nonzero"/><path fill="#000000" d="M 248.074219 241.335938 C 238.714844 240.859375 240.28125 229.953125 245.484375 224.617188 C 256.875 212.472656 269.132812 223.515625 258.214844 236.089844 C 255.15625 239.484375 251.34375 241.335938 248.074219 241.335938 Z M 255.644531 222.238281 C 251.039062 222.070312 244.824219 228.128906 244.246094 233.042969 C 243.921875 235.007812 244.320312 236.609375 245.359375 237.546875 C 247.660156 239.621094 252.574219 238.078125 256.09375 234.179688 C 260.257812 229.535156 261.402344 222.519531 255.644531 222.238281 Z M 255.644531 222.238281 " fill-opacity="1" fill-rule="nonzero"/></svg>