<svg xmlns="http://www.w3.org/2000/svg" xmlns:xlink="http://www.w3.org/1999/xlink" width="500" zoomAndPan="magnify" viewBox="0 0 375 374.999991" height="500" preserveAspectRatio="xMidYMid meet" version="1.0"><path fill="#ffa0c6" d="M 327.484375 302.371094 C 360.617188 253.957031 307.933594 143.957031 252.539062 110.941406 C 67.832031 0.84375 14.03125 284.804688 62.246094 313.636719 C 104.035156 338.605469 278.070312 374.585938 327.484375 302.371094 Z M 327.484375 302.371094 " fill-opacity="1" fill-rule="nonzero"/><path fill="#000000" d="M 188.066406 268.242188 C 185.910156 268.242188 183.914062 267.117188 182.8125 265.269531 L 164.445312 234.664062 C 162.695312 231.765625 163.652344 228.007812 166.550781 226.269531 C 169.429688 224.542969 173.214844 225.460938 174.953125 228.363281 L 188.066406 250.226562 L 201.179688 228.363281 C 202.941406 225.460938 206.710938 224.53125 209.578125 226.269531 C 212.480469 228.007812 213.421875 231.765625 211.683594 234.664062 L 193.316406 265.269531 C 192.214844 267.117188 190.21875 268.242188 188.066406 268.242188 Z M 188.066406 268.242188 " fill-opacity="1" fill-rule="nonzero"/><path fill="#000000" d="M 188.066406 298.847656 C 184.6875 298.847656 181.941406 296.105469 181.941406 292.726562 L 181.941406 262.125 C 181.941406 258.746094 184.6875 256.003906 188.066406 256.003906 C 191.445312 256.003906 194.1875 258.746094 194.1875 262.125 L 194.1875 292.726562 C 194.1875 296.105469 191.445312 298.847656 188.066406 298.847656 Z M 188.066406 298.847656 " fill-opacity="1" fill-rule="nonzero"/><path fill="#000000" d="M 132.96875 298.847656 L 108.480469 298.847656 C 98.355469 298.847656 90.113281 290.609375 90.113281 280.484375 L 90.113281 243.761719 C 90.113281 233.636719 98.355469 225.398438 108.480469 225.398438 L 132.96875 225.398438 C 136.347656 225.398438 139.089844 228.140625 139.089844 231.519531 C 139.089844 234.898438 136.347656 237.640625 132.96875 237.640625 L 108.480469 237.640625 C 105.113281 237.640625 102.359375 240.382812 102.359375 243.761719 L 102.359375 280.484375 C 102.359375 283.863281 105.113281 286.605469 108.480469 286.605469 L 126.847656 286.605469 L 126.847656 274.363281 L 120.722656 274.363281 C 117.34375 274.363281 114.601562 271.621094 114.601562 268.242188 C 114.601562 264.867188 117.34375 262.125 120.722656 262.125 L 132.96875 262.125 C 136.347656 262.125 139.089844 264.867188 139.089844 268.242188 L 139.089844 292.726562 C 139.089844 296.105469 136.347656 298.847656 132.96875 298.847656 Z M 132.96875 298.847656 " fill-opacity="1" fill-rule="nonzero"/><path fill="#000000" d="M 279.894531 298.847656 C 276.515625 298.847656 273.773438 296.105469 273.773438 292.726562 L 273.773438 257.445312 L 267 270.972656 C 264.917969 275.125 258.125 275.125 256.042969 270.972656 L 249.285156 257.445312 L 249.285156 292.726562 C 249.285156 296.105469 246.542969 298.847656 243.160156 298.847656 C 239.78125 298.847656 237.039062 296.105469 237.039062 292.726562 L 237.039062 231.519531 C 237.039062 228.679688 238.988281 226.207031 241.753906 225.558594 C 244.558594 224.898438 247.375 226.242188 248.648438 228.777344 L 261.527344 254.558594 L 274.421875 228.789062 C 275.695312 226.242188 278.484375 224.910156 281.3125 225.570312 C 284.070312 226.207031 286.015625 228.679688 286.015625 231.519531 L 286.015625 292.726562 C 286.015625 296.105469 283.273438 298.847656 279.894531 298.847656 Z M 279.894531 298.847656 " fill-opacity="1" fill-rule="nonzero"/><path fill="#000000" d="M 292.136719 335.570312 L 83.992188 335.570312 C 67.109375 335.570312 53.382812 321.835938 53.382812 304.96875 L 53.382812 219.277344 C 53.382812 202.410156 67.109375 188.675781 83.992188 188.675781 L 292.136719 188.675781 C 309.023438 188.675781 322.746094 202.410156 322.746094 219.277344 L 322.746094 304.96875 C 322.746094 321.835938 309.023438 335.570312 292.136719 335.570312 Z M 83.992188 200.917969 C 73.867188 200.917969 65.625 209.15625 65.625 219.277344 L 65.625 304.96875 C 65.625 315.089844 73.867188 323.332031 83.992188 323.332031 L 292.136719 323.332031 C 302.261719 323.332031 310.503906 315.089844 310.503906 304.96875 L 310.503906 219.277344 C 310.503906 209.15625 302.261719 200.917969 292.136719 200.917969 Z M 83.992188 200.917969 " fill-opacity="1" fill-rule="nonzero"/><path fill="#000000" d="M 108.480469 200.917969 C 105.101562 200.917969 102.359375 198.175781 102.359375 194.796875 L 102.359375 145.832031 C 102.359375 142.453125 105.101562 139.710938 108.480469 139.710938 C 111.859375 139.710938 114.601562 142.453125 114.601562 145.832031 L 114.601562 194.796875 C 114.601562 198.175781 111.859375 200.917969 108.480469 200.917969 Z M 108.480469 200.917969 " fill-opacity="1" fill-rule="nonzero"/><path fill="#000000" d="M 267.648438 200.917969 C 264.269531 200.917969 261.527344 198.175781 261.527344 194.796875 L 261.527344 145.832031 C 261.527344 142.453125 264.269531 139.710938 267.648438 139.710938 C 271.027344 139.710938 273.773438 142.453125 273.773438 145.832031 L 273.773438 194.796875 C 273.773438 198.175781 271.027344 200.917969 267.648438 200.917969 Z M 267.648438 200.917969 " fill-opacity="1" fill-rule="nonzero"/><path fill="#000000" d="M 328.867188 127.46875 L 292.136719 127.46875 C 288.757812 127.46875 286.015625 124.726562 286.015625 121.347656 C 286.015625 117.96875 288.757812 115.226562 292.136719 115.226562 L 328.867188 115.226562 C 332.246094 115.226562 334.992188 117.96875 334.992188 121.347656 C 334.992188 124.726562 332.246094 127.46875 328.867188 127.46875 Z M 328.867188 127.46875 " fill-opacity="1" fill-rule="nonzero"/><path fill="#000000" d="M 83.992188 127.46875 L 47.261719 127.46875 C 43.882812 127.46875 41.140625 124.726562 41.140625 121.347656 C 41.140625 117.96875 43.882812 115.226562 47.261719 115.226562 L 83.992188 115.226562 C 87.371094 115.226562 90.113281 117.96875 90.113281 121.347656 C 90.113281 124.726562 87.371094 127.46875 83.992188 127.46875 Z M 83.992188 127.46875 " fill-opacity="1" fill-rule="nonzero"/><path fill="#000000" d="M 243.160156 127.46875 L 132.96875 127.46875 C 129.589844 127.46875 126.847656 124.726562 126.847656 121.347656 C 126.847656 117.96875 129.589844 115.226562 132.96875 115.226562 L 243.160156 115.226562 C 246.542969 115.226562 249.285156 117.96875 249.285156 121.347656 C 249.285156 124.726562 246.542969 127.46875 243.160156 127.46875 Z M 243.160156 127.46875 " fill-opacity="1" fill-rule="nonzero"/><path fill="#000000" d="M 267.648438 151.949219 C 250.765625 151.949219 237.039062 138.214844 237.039062 121.347656 C 237.039062 104.480469 250.765625 90.746094 267.648438 90.746094 C 284.535156 90.746094 298.257812 104.480469 298.257812 121.347656 C 298.257812 138.214844 284.535156 151.949219 267.648438 151.949219 Z M 267.648438 102.984375 C 257.523438 102.984375 249.285156 111.222656 249.285156 121.347656 C 249.285156 131.472656 257.523438 139.710938 267.648438 139.710938 C 277.773438 139.710938 286.015625 131.472656 286.015625 121.347656 C 286.015625 111.222656 277.773438 102.984375 267.648438 102.984375 Z M 267.648438 102.984375 " fill-opacity="1" fill-rule="nonzero"/><path fill="#000000" d="M 108.480469 151.949219 C 91.597656 151.949219 77.871094 138.214844 77.871094 121.347656 C 77.871094 104.480469 91.597656 90.746094 108.480469 90.746094 C 125.363281 90.746094 139.089844 104.480469 139.089844 121.347656 C 139.089844 138.214844 125.363281 151.949219 108.480469 151.949219 Z M 108.480469 102.984375 C 98.355469 102.984375 90.113281 111.222656 90.113281 121.347656 C 90.113281 131.472656 98.355469 139.710938 108.480469 139.710938 C 118.605469 139.710938 126.847656 131.472656 126.847656 121.347656 C 126.847656 111.222656 118.605469 102.984375 108.480469 102.984375 Z M 108.480469 102.984375 " fill-opacity="1" fill-rule="nonzero"/></svg>